<svg width="255" height="97" viewBox="0 0 255 97" fill="none" xmlns="http://www.w3.org/2000/svg">
<path d="M20.096 96.896C16.3413 96.896 12.928 95.6587 9.856 93.184C6.86933 90.624 4.48 86.9973 2.688 82.304C0.896 77.6107 0 72.0213 0 65.536C0 58.2827 1.06667 51.968 3.2 46.592C5.41867 41.216 8.40533 37.0773 12.16 34.176C15.9147 31.1893 20.096 29.696 24.704 29.696C28.6293 29.696 31.7013 30.464 33.92 32C34.7733 32.5973 35.2 33.536 35.2 34.816L35.456 50.432C35.456 51.712 34.944 52.352 33.92 52.352C32.9813 52.352 32.384 51.7973 32.128 50.688C30.9333 45.9947 29.7813 42.368 28.672 39.808C27.5627 37.248 26.4107 35.4987 25.216 34.56C24.0213 33.536 22.6987 33.024 21.248 33.024C19.5413 33.024 17.7493 34.0053 15.872 35.968C14.08 37.9307 12.544 41.1307 11.264 45.568C10.0693 49.92 9.472 55.68 9.472 62.848C9.472 71.9787 10.624 78.848 12.928 83.456C15.3173 88.064 18.3893 90.368 22.144 90.368C25.1307 90.368 27.6053 89.1307 29.568 86.656C31.616 84.1813 33.3653 79.7013 34.816 73.216C35.072 72.2773 35.584 71.808 36.352 71.808C37.376 71.808 37.76 72.6613 37.504 74.368C36.5653 80.3413 35.2427 84.992 33.536 88.32C31.9147 91.5627 29.952 93.824 27.648 95.104C25.4293 96.2987 22.912 96.896 20.096 96.896Z" fill="#222222"/>
<path d="M52.103 38.656C55.6017 32.6827 59.8257 29.696 64.775 29.696C67.591 29.696 69.6817 30.5493 71.047 32.256C72.4123 33.8773 73.095 35.712 73.095 37.76C73.095 39.3813 72.6683 40.704 71.815 41.728C71.047 42.752 69.8097 43.264 68.103 43.264C66.7377 43.264 65.7137 42.9653 65.031 42.368C64.4337 41.6853 63.9217 40.9173 63.495 40.064C63.1537 39.2107 62.727 38.4853 62.215 37.888C61.703 37.2053 60.8497 36.864 59.655 36.864C58.119 36.864 56.6683 37.8027 55.303 39.68C53.9377 41.472 52.7857 43.904 51.847 46.976C50.9937 50.048 50.567 53.5467 50.567 57.472V87.168C50.567 88.96 50.823 90.24 51.335 91.008C51.9323 91.776 53.127 92.2453 54.919 92.416L58.375 92.8C59.3137 92.9707 59.783 93.44 59.783 94.208C59.783 95.232 59.143 95.744 57.863 95.744H36.231C34.951 95.744 34.311 95.2747 34.311 94.336C34.311 93.568 34.8657 93.056 35.975 92.8L37.511 92.544C39.303 92.2027 40.455 91.6907 40.967 91.008C41.5643 90.24 41.863 88.96 41.863 87.168V44.16C41.863 42.624 41.607 41.6 41.095 41.088C40.6683 40.4907 39.8577 40.1067 38.663 39.936L35.975 39.552C34.8657 39.4667 34.311 38.9973 34.311 38.144C34.311 37.4613 34.9937 36.992 36.359 36.736C39.0043 36.3093 41.0097 35.6267 42.375 34.688C43.8257 33.7493 45.319 32.5973 46.855 31.232C47.623 30.464 48.263 30.08 48.775 30.08C49.543 30.08 49.927 30.592 49.927 31.616V38.528C49.927 39.1253 50.183 39.5093 50.695 39.68C51.207 39.7653 51.6763 39.424 52.103 38.656Z" fill="#222222"/>
<path d="M79.211 96.896C75.627 96.896 72.683 95.7867 70.379 93.568C68.075 91.264 66.923 88.2347 66.923 84.48C66.923 80.8107 68.075 77.3547 70.379 74.112C72.683 70.784 75.8403 67.7973 79.851 65.152C83.8617 62.5067 88.427 60.3733 93.547 58.752C94.6563 58.4107 95.211 57.6853 95.211 56.576V44.928C95.211 40.832 94.571 37.9307 93.291 36.224C92.011 34.432 90.2617 33.536 88.043 33.536C85.9097 33.536 83.947 34.5173 82.155 36.48C80.4483 38.3573 79.211 41.5573 78.443 46.08C78.0163 48.8107 77.0777 50.816 75.627 52.096C74.2617 53.2907 72.8537 53.888 71.403 53.888C69.0137 53.888 67.819 52.6933 67.819 50.304C67.819 47.8293 68.5017 45.3973 69.867 43.008C71.3177 40.5333 73.195 38.3147 75.499 36.352C77.803 34.304 80.3203 32.6827 83.051 31.488C85.7817 30.2933 88.5123 29.696 91.243 29.696C99.691 29.696 103.915 34.6027 103.915 44.416V83.584C103.915 87.168 104.811 88.96 106.603 88.96C107.712 88.96 108.736 88.2347 109.675 86.784C110.614 85.248 111.083 82.688 111.083 79.104C111.083 77.7387 111.638 77.056 112.747 77.056C113.771 77.056 114.283 77.7813 114.283 79.232C114.283 85.4613 113.174 89.984 110.955 92.8C108.822 95.5307 106.39 96.896 103.659 96.896C101.611 96.896 99.9897 96.0853 98.795 94.464C97.6003 92.7573 96.7897 90.752 96.363 88.448C96.2777 87.5947 95.8937 87.168 95.211 87.168C94.6137 87.0827 94.0163 87.4667 93.419 88.32C91.371 91.136 89.2803 93.2693 87.147 94.72C85.0137 96.1707 82.3683 96.896 79.211 96.896ZM82.667 91.008C84.8857 91.008 86.9337 90.24 88.811 88.704C90.6883 87.0827 92.2243 84.9493 93.419 82.304C94.6137 79.6587 95.211 76.672 95.211 73.344V64C95.211 62.3787 94.315 61.9093 92.523 62.592C87.3177 64.4693 83.2643 67.072 80.363 70.4C77.547 73.6427 76.139 77.568 76.139 82.176C76.139 88.064 78.315 91.008 82.667 91.008Z" fill="#222222"/>
<path d="M118.816 87.168V37.12C118.816 35.072 117.792 34.048 115.744 34.048H112.8C111.776 34.048 111.264 33.6213 111.264 32.768C111.264 31.9147 111.776 31.4453 112.8 31.36C116.811 30.9333 118.816 29.184 118.816 26.112V25.344C118.816 20.9067 119.456 16.768 120.736 12.928C122.101 9.088 124.021 5.97333 126.496 3.584C129.056 1.19467 132.171 0 135.84 0C139.253 0 142.112 0.981333 144.416 2.944C146.72 4.90667 147.872 7.25333 147.872 9.984C147.872 11.6053 147.445 12.8427 146.592 13.696C145.824 14.464 144.757 14.848 143.392 14.848C141.685 14.848 140.448 14.2933 139.68 13.184C138.997 12.0747 138.443 10.8373 138.016 9.472C137.589 8.02133 137.035 6.74133 136.352 5.632C135.755 4.52267 134.645 3.968 133.024 3.968C131.317 3.968 129.952 4.94934 128.928 6.912C127.989 8.78933 127.52 12.3733 127.52 17.664V28.928C127.52 29.952 128.032 30.464 129.056 30.464H140.064C141.344 30.464 141.984 31.0613 141.984 32.256C141.984 33.4507 141.344 34.048 140.064 34.048H129.056C128.032 34.048 127.52 34.56 127.52 35.584V87.168C127.52 88.96 127.776 90.1973 128.288 90.88C128.885 91.5627 130.08 91.9893 131.872 92.16L138.656 92.8C139.595 92.9707 140.064 93.44 140.064 94.208C140.064 95.232 139.424 95.744 138.144 95.744H111.52C110.24 95.744 109.6 95.2747 109.6 94.336C109.6 93.3973 110.155 92.8853 111.264 92.8L114.464 92.544C116.256 92.3733 117.408 91.904 117.92 91.136C118.517 90.2827 118.816 88.96 118.816 87.168Z" fill="#222222"/>
<path d="M154.087 96.896C151.1 96.896 148.626 95.872 146.663 93.824C144.786 91.6907 143.847 88.2347 143.847 83.456V35.584C143.847 34.56 143.335 34.048 142.311 34.048H138.599C137.234 34.048 136.551 33.536 136.551 32.512C136.551 31.8293 136.935 31.232 137.703 30.72C140.519 28.7573 142.78 26.6667 144.487 24.448C146.194 22.144 147.687 19.0293 148.967 15.104C149.564 13.312 150.29 12.416 151.143 12.416C152.082 12.416 152.551 13.0987 152.551 14.464V28.672C152.551 29.8667 153.148 30.464 154.343 30.464H162.663C164.028 30.464 164.711 31.0613 164.711 32.256C164.711 33.4507 164.028 34.048 162.663 34.048H154.343C153.148 34.048 152.551 34.6453 152.551 35.84V83.584C152.551 85.4613 152.85 86.9547 153.447 88.064C154.044 89.088 155.154 89.6 156.775 89.6C158.567 89.6 160.018 88.704 161.127 86.912C162.322 85.12 163.09 82.2187 163.431 78.208C163.602 77.0133 164.156 76.416 165.095 76.416C166.119 76.416 166.631 77.056 166.631 78.336C166.375 84.9067 165.01 89.6427 162.535 92.544C160.146 95.4453 157.33 96.896 154.087 96.896Z" fill="#222222"/>
<path d="M197.954 96.896C195.821 96.896 193.773 96.4267 191.81 95.488C189.847 94.5493 188.226 93.056 186.946 91.008C185.666 88.96 185.026 86.2293 185.026 82.816V38.272C185.026 36.736 184.77 35.6693 184.258 35.072C183.831 34.4747 183.021 34.1333 181.826 34.048L179.65 33.792C178.199 33.6213 177.474 33.0667 177.474 32.128C177.474 31.0187 178.285 30.464 179.906 30.464H191.81C193.09 30.464 193.73 31.104 193.73 32.384V80.128C193.73 84.0533 194.455 86.8693 195.906 88.576C197.442 90.1973 199.533 91.008 202.178 91.008C204.823 91.008 207.17 90.2827 209.218 88.832C211.266 87.296 212.887 85.2907 214.082 82.816C215.362 80.256 216.002 77.4827 216.002 74.496V38.272C216.002 36.736 215.746 35.6693 215.234 35.072C214.807 34.4747 213.997 34.1333 212.802 34.048L210.626 33.792C209.175 33.6213 208.45 33.0667 208.45 32.128C208.45 31.0187 209.261 30.464 210.882 30.464H222.786C224.066 30.464 224.706 31.104 224.706 32.384V82.048C224.706 83.584 224.919 84.6507 225.346 85.248C225.858 85.76 226.711 86.1013 227.906 86.272L230.594 86.656C231.703 86.7413 232.258 87.168 232.258 87.936C232.258 88.704 231.575 89.216 230.21 89.472C227.565 89.8133 225.431 90.496 223.81 91.52C222.274 92.544 220.909 93.7813 219.714 95.232C218.946 96 218.306 96.384 217.794 96.384C217.026 96.384 216.642 95.872 216.642 94.848V88.96C216.642 88.2773 216.386 87.8933 215.874 87.808C215.447 87.6373 214.978 87.808 214.466 88.32C211.309 91.4773 208.493 93.696 206.018 94.976C203.629 96.256 200.941 96.896 197.954 96.896Z" fill="#222222"/>
<path d="M241.743 18.304C239.951 18.304 238.415 17.664 237.135 16.384C235.94 15.104 235.343 13.4827 235.343 11.52C235.343 9.55733 235.94 7.97866 237.135 6.784C238.415 5.504 239.951 4.864 241.743 4.864C243.535 4.864 245.028 5.504 246.223 6.784C247.418 7.97866 248.015 9.55733 248.015 11.52C248.015 13.4827 247.418 15.104 246.223 16.384C245.028 17.664 243.535 18.304 241.743 18.304ZM230.991 95.744C229.711 95.744 229.071 95.2747 229.071 94.336C229.071 93.568 229.626 93.056 230.735 92.8L232.271 92.544C234.404 92.2027 235.77 91.6907 236.367 91.008C236.964 90.24 237.263 88.96 237.263 87.168V44.16C237.263 42.624 237.007 41.6 236.495 41.088C236.068 40.4907 235.258 40.1067 234.063 39.936L231.375 39.552C230.266 39.4667 229.711 38.9973 229.711 38.144C229.711 37.4613 230.394 36.992 231.759 36.736C234.404 36.3093 236.538 35.6267 238.159 34.688C239.78 33.7493 241.359 32.5973 242.895 31.232C243.663 30.464 244.303 30.08 244.815 30.08C245.583 30.08 245.967 30.592 245.967 31.616V87.168C245.967 88.96 246.223 90.24 246.735 91.008C247.247 91.776 248.228 92.2453 249.679 92.416L252.879 92.8C253.818 92.9707 254.287 93.44 254.287 94.208C254.287 95.232 253.647 95.744 252.367 95.744H230.991Z" fill="#222222"/>
</svg>
